<svg width="66" height="38" viewBox="0 0 66 38" fill="none" xmlns="http://www.w3.org/2000/svg">
<rect x="56" y="20" width="10" height="10" fill="#01ABBD"/>
<path d="M4.04688 7.25H7.76562L13.9844 24.375L20.1875 7.25H23.9219L15.4688 30H12.4844L4.04688 7.25ZM2.17188 7.25H5.8125L6.46875 22.9844V30H2.17188V7.25ZM22.1406 7.25H25.7969V30H21.5V22.9844L22.1406 7.25ZM34.2344 13.0938V30H30.0938V13.0938H34.2344ZM29.8125 8.67188C29.8125 8.05729 30.0208 7.54688 30.4375 7.14062C30.8646 6.73438 31.4375 6.53125 32.1562 6.53125C32.875 6.53125 33.4427 6.73438 33.8594 7.14062C34.2865 7.54688 34.5 8.05729 34.5 8.67188C34.5 9.27604 34.2865 9.78125 33.8594 10.1875C33.4427 10.5938 32.875 10.7969 32.1562 10.7969C31.4375 10.7969 30.8646 10.5938 30.4375 10.1875C30.0208 9.78125 29.8125 9.27604 29.8125 8.67188ZM45.1094 27.0625C45.6927 27.0625 46.2135 26.9479 46.6719 26.7188C47.1302 26.4896 47.4948 26.1667 47.7656 25.75C48.0469 25.3333 48.1979 24.849 48.2188 24.2969H52.1094C52.0885 25.4427 51.7656 26.4688 51.1406 27.375C50.5156 28.2812 49.6823 29 48.6406 29.5312C47.6094 30.0521 46.4531 30.3125 45.1719 30.3125C43.8698 30.3125 42.7344 30.0938 41.7656 29.6562C40.7969 29.2188 39.9896 28.6094 39.3438 27.8281C38.7083 27.0469 38.2292 26.1406 37.9062 25.1094C37.5938 24.0781 37.4375 22.974 37.4375 21.7969V21.2969C37.4375 20.1198 37.5938 19.0156 37.9062 17.9844C38.2292 16.9531 38.7083 16.0469 39.3438 15.2656C39.9896 14.4844 40.7969 13.875 41.7656 13.4375C42.7344 13 43.8646 12.7812 45.1562 12.7812C46.5208 12.7812 47.7188 13.0469 48.75 13.5781C49.7917 14.1094 50.6042 14.8594 51.1875 15.8281C51.7812 16.7969 52.0885 17.9375 52.1094 19.25H48.2188C48.1979 18.6458 48.0625 18.1042 47.8125 17.625C47.5625 17.1458 47.2083 16.7604 46.75 16.4688C46.2917 16.1771 45.7344 16.0312 45.0781 16.0312C44.3802 16.0312 43.7969 16.1771 43.3281 16.4688C42.8698 16.7604 42.5104 17.1615 42.25 17.6719C42 18.1719 41.8229 18.7344 41.7188 19.3594C41.625 19.974 41.5781 20.6198 41.5781 21.2969V21.7969C41.5781 22.4844 41.625 23.1406 41.7188 23.7656C41.8229 24.3906 42 24.9531 42.25 25.4531C42.5104 25.9427 42.8698 26.3333 43.3281 26.625C43.7969 26.9167 44.3906 27.0625 45.1094 27.0625Z" fill="white"/>
</svg>
